<svg width="63" height="70" viewBox="0 0 63 70" fill="none" xmlns="http://www.w3.org/2000/svg">
<path d="M53.9692 53.6524L54.9606 53.5212L53.9692 53.6524ZM55.3921 69.7939C55.8305 70.1298 56.4582 70.0467 56.7941 69.6083L62.2681 62.4644C62.604 62.026 62.521 61.3983 62.0826 61.0624C61.6442 60.7265 61.0165 60.8096 60.6806 61.248L55.8148 67.5981L49.4647 62.7323C49.0263 62.3964 48.3986 62.4795 48.0627 62.9179C47.7268 63.3562 47.8099 63.9839 48.2482 64.3198L55.3921 69.7939ZM1.50013 5.97079L0.500126 5.97081L1.50013 5.97079ZM22.7918 30.6937L22.6435 31.6826L22.7918 30.6937ZM32.8937 32.2089L33.042 31.22L32.8937 32.2089ZM52.9778 53.7836L55.009 69.1313L56.9917 68.8689L54.9606 53.5212L52.9778 53.7836ZM0.5 2.11189e-05L0.500126 5.97081L2.50013 5.97077L2.5 -2.11189e-05L0.5 2.11189e-05ZM22.6435 31.6826L32.7453 33.1978L33.042 31.22L22.9401 29.7048L22.6435 31.6826ZM0.500126 5.97081C0.500398 18.8406 9.91606 29.7736 22.6435 31.6826L22.9401 29.7048C11.1918 27.9426 2.50038 17.8506 2.50013 5.97077L0.500126 5.97081ZM54.9606 53.5212C53.4403 42.0337 44.5015 32.9388 33.042 31.22L32.7453 33.1978C43.3233 34.7845 51.5745 43.1797 52.9778 53.7836L54.9606 53.5212Z" fill="white"/>
</svg>
