<svg width="74" height="17" viewBox="0 0 74 17" fill="none" xmlns="http://www.w3.org/2000/svg">
<g filter="url(#filter0_d_4_359)">
<path d="M2 14.6V2H7.454C8.582 2 9.554 2.186 10.37 2.558C11.186 2.918 11.816 3.44 12.26 4.124C12.704 4.808 12.926 5.624 12.926 6.572C12.926 7.508 12.704 8.318 12.26 9.002C11.816 9.686 11.186 10.214 10.37 10.586C9.554 10.946 8.582 11.126 7.454 11.126H3.62L4.916 9.812V14.6H2ZM4.916 10.136L3.62 8.75H7.292C8.192 8.75 8.864 8.558 9.308 8.174C9.752 7.79 9.974 7.256 9.974 6.572C9.974 5.876 9.752 5.336 9.308 4.952C8.864 4.568 8.192 4.376 7.292 4.376H3.62L4.916 2.99V10.136Z" fill="#0D0D0D"/>
<path d="M14.7922 14.6V4.916H17.4742V7.652L17.0962 6.86C17.3842 6.176 17.8462 5.66 18.4822 5.312C19.1182 4.952 19.8922 4.772 20.8042 4.772V7.364C20.6842 7.352 20.5762 7.346 20.4802 7.346C20.3842 7.334 20.2822 7.328 20.1742 7.328C19.4062 7.328 18.7822 7.55 18.3022 7.994C17.8342 8.426 17.6002 9.104 17.6002 10.028V14.6H14.7922Z" fill="#0D0D0D"/>
<path d="M27.7811 14.6V12.71L27.6011 12.296V8.912C27.6011 8.312 27.4151 7.844 27.0431 7.508C26.6831 7.172 26.1251 7.004 25.3691 7.004C24.8531 7.004 24.3431 7.088 23.8391 7.256C23.3471 7.412 22.9271 7.628 22.5791 7.904L21.5711 5.942C22.0991 5.57 22.7351 5.282 23.4791 5.078C24.2231 4.874 24.9791 4.772 25.7471 4.772C27.2231 4.772 28.3691 5.12 29.1851 5.816C30.0011 6.512 30.4091 7.598 30.4091 9.074V14.6H27.7811ZM24.8291 14.744C24.0731 14.744 23.4251 14.618 22.8851 14.366C22.3451 14.102 21.9311 13.748 21.6431 13.304C21.3551 12.86 21.2111 12.362 21.2111 11.81C21.2111 11.234 21.3491 10.73 21.6251 10.298C21.9131 9.866 22.3631 9.53 22.9751 9.29C23.5871 9.038 24.3851 8.912 25.3691 8.912H27.9431V10.55H25.6751C25.0151 10.55 24.5591 10.658 24.3071 10.874C24.0671 11.09 23.9471 11.36 23.9471 11.684C23.9471 12.044 24.0851 12.332 24.3611 12.548C24.6491 12.752 25.0391 12.854 25.5311 12.854C25.9991 12.854 26.4191 12.746 26.7911 12.53C27.1631 12.302 27.4331 11.972 27.6011 11.54L28.0331 12.836C27.8291 13.46 27.4571 13.934 26.9171 14.258C26.3771 14.582 25.6811 14.744 24.8291 14.744Z" fill="#0D0D0D"/>
<path d="M32.9504 14.6V4.916H35.7584V14.6H32.9504Z" fill="#0D0D0D"/>
<path d="M42.9725 14.744C41.9405 14.744 41.0225 14.528 40.2185 14.096C39.4265 13.664 38.7965 13.076 38.3285 12.332C37.8725 11.576 37.6445 10.718 37.6445 9.758C37.6445 8.786 37.8725 7.928 38.3285 7.184C38.7965 6.428 39.4265 5.84 40.2185 5.42C41.0225 4.988 41.9405 4.772 42.9725 4.772C43.9925 4.772 44.9045 4.988 45.7085 5.42C46.5125 5.84 47.1425 6.422 47.5985 7.166C48.0545 7.91 48.2825 8.774 48.2825 9.758C48.2825 10.718 48.0545 11.576 47.5985 12.332C47.1425 13.076 46.5125 13.664 45.7085 14.096C44.9045 14.528 43.9925 14.744 42.9725 14.744ZM42.9725 12.44C43.4405 12.44 43.8605 12.332 44.2325 12.116C44.6045 11.9 44.8985 11.594 45.1145 11.198C45.3305 10.79 45.4385 10.31 45.4385 9.758C45.4385 9.194 45.3305 8.714 45.1145 8.318C44.8985 7.922 44.6045 7.616 44.2325 7.4C43.8605 7.184 43.4405 7.076 42.9725 7.076C42.5045 7.076 42.0845 7.184 41.7125 7.4C41.3405 7.616 41.0405 7.922 40.8125 8.318C40.5965 8.714 40.4885 9.194 40.4885 9.758C40.4885 10.31 40.5965 10.79 40.8125 11.198C41.0405 11.594 41.3405 11.9 41.7125 12.116C42.0845 12.332 42.5045 12.44 42.9725 12.44Z" fill="#0D0D0D"/>
<path d="M54.7674 14.744C53.7354 14.744 52.8174 14.528 52.0134 14.096C51.2214 13.664 50.5914 13.076 50.1234 12.332C49.6674 11.576 49.4394 10.718 49.4394 9.758C49.4394 8.786 49.6674 7.928 50.1234 7.184C50.5914 6.428 51.2214 5.84 52.0134 5.42C52.8174 4.988 53.7354 4.772 54.7674 4.772C55.7874 4.772 56.6994 4.988 57.5034 5.42C58.3074 5.84 58.9374 6.422 59.3934 7.166C59.8494 7.91 60.0774 8.774 60.0774 9.758C60.0774 10.718 59.8494 11.576 59.3934 12.332C58.9374 13.076 58.3074 13.664 57.5034 14.096C56.6994 14.528 55.7874 14.744 54.7674 14.744ZM54.7674 12.44C55.2354 12.44 55.6554 12.332 56.0274 12.116C56.3994 11.9 56.6934 11.594 56.9094 11.198C57.1254 10.79 57.2334 10.31 57.2334 9.758C57.2334 9.194 57.1254 8.714 56.9094 8.318C56.6934 7.922 56.3994 7.616 56.0274 7.4C55.6554 7.184 55.2354 7.076 54.7674 7.076C54.2994 7.076 53.8794 7.184 53.5074 7.4C53.1354 7.616 52.8354 7.922 52.6074 8.318C52.3914 8.714 52.2834 9.194 52.2834 9.758C52.2834 10.31 52.3914 10.79 52.6074 11.198C52.8354 11.594 53.1354 11.9 53.5074 12.116C53.8794 12.332 54.2994 12.44 54.7674 12.44Z" fill="#0D0D0D"/>
<path d="M66.0403 14.744C65.2363 14.744 64.5163 14.588 63.8803 14.276C63.2563 13.964 62.7703 13.49 62.4223 12.854C62.0743 12.206 61.9003 11.384 61.9003 10.388V4.916H64.7083V9.974C64.7083 10.778 64.8763 11.372 65.2123 11.756C65.5603 12.128 66.0463 12.314 66.6703 12.314C67.1023 12.314 67.4863 12.224 67.8223 12.044C68.1583 11.852 68.4223 11.564 68.6143 11.18C68.8063 10.784 68.9023 10.292 68.9023 9.704V4.916H71.7103V14.6H69.0463V11.936L69.5323 12.71C69.2083 13.382 68.7283 13.892 68.0923 14.24C67.4683 14.576 66.7843 14.744 66.0403 14.744Z" fill="#0D0D0D"/>
</g>
<path d="M49.6725 8.08331C51.4661 7.1242 52.6169 6.7461 55.4943 6.98331L55.861 6.43331C55.4367 5.78649 55.1094 5.38689 54.3943 4.61329C52.3098 4.76476 50.465 6.19233 49.6725 8.08331Z" fill="#0A9396"/>
<path d="M57.8777 5.62631L56.7777 6.79998V7.34998C58.1128 7.66998 58.8559 8.10095 60.1775 9.18331C59.915 7.74718 59.0533 6.46637 57.8777 5.62631Z" fill="#EE9B00"/>
<path d="M54.761 15.6C55.8319 15.6 56.8532 15.259 57.7186 14.6833C58.1809 11.8131 58.0365 10.2389 56.5943 7.53331L56.0443 7.71664C54.5914 9.09005 53.5163 10.7513 51.403 14.3915C52.3455 15.142 53.5199 15.6 54.761 15.6Z" fill="#AE2012"/>
<path d="M60.261 10.1C60.261 9.78939 60.2323 9.48297 60.1775 9.18331C58.8559 8.10095 58.1128 7.66998 56.7777 7.34998L56.5943 7.53331C58.0365 10.2389 58.1809 11.8131 57.7186 14.6833C59.2263 13.6805 60.261 11.9654 60.261 10.1Z" fill="#94D2B2"/>
<path d="M57.8777 5.62631C56.9795 4.98451 55.8982 4.59998 54.761 4.59998C54.6381 4.59998 54.5158 4.60447 54.3943 4.61329C55.1094 5.38689 55.4367 5.78649 55.861 6.43331L56.7777 6.79998L57.8777 5.62631Z" fill="#CA6702"/>
<path d="M49.261 10.1C49.261 11.7952 50.1155 13.3663 51.403 14.3915C53.5163 10.7513 54.5914 9.09005 56.0443 7.71664L55.4943 6.98331C52.6169 6.7461 51.4661 7.1242 49.6725 8.08331C49.4082 8.71403 49.261 9.3963 49.261 10.1Z" fill="#E9D8A6"/>
<circle cx="56.5379" cy="6.87695" r="1.03125" transform="rotate(-16.1134 56.5379 6.87695)" fill="white"/>
<defs>
<filter id="filter0_d_4_359" x="0" y="0" width="73.7104" height="16.744" filterUnits="userSpaceOnUse" color-interpolation-filters="sRGB">
<feFlood flood-opacity="0" result="BackgroundImageFix"/>
<feColorMatrix in="SourceAlpha" type="matrix" values="0 0 0 0 0 0 0 0 0 0 0 0 0 0 0 0 0 0 127 0" result="hardAlpha"/>
<feOffset/>
<feGaussianBlur stdDeviation="1"/>
<feComposite in2="hardAlpha" operator="out"/>
<feColorMatrix type="matrix" values="0 0 0 0 0 0 0 0 0 0 0 0 0 0 0 0 0 0 0.25 0"/>
<feBlend mode="normal" in2="BackgroundImageFix" result="effect1_dropShadow_4_359"/>
<feBlend mode="normal" in="SourceGraphic" in2="effect1_dropShadow_4_359" result="shape"/>
</filter>
</defs>
</svg>
