<svg width="83" height="83" viewBox="0 0 83 83" fill="none" xmlns="http://www.w3.org/2000/svg">
<g filter="url(#filter0_d_1105_93)">
<path d="M9.59729 27.8567C20.8422 21.8434 28.0576 19.4729 46.0976 20.9601L48.3964 17.5118C45.7365 13.4565 43.684 10.9512 39.201 6.10108C26.1318 7.05074 14.5655 16.001 9.59729 27.8567Z" fill="#0A9396"/>
<path d="M61.0401 12.4523L54.1435 19.8107V23.259C62.5146 25.2653 67.1734 27.9672 75.4594 34.7532C73.8135 25.7493 68.4106 17.7191 61.0401 12.4523Z" fill="#EE9B00"/>
<path d="M41.4998 74.9831C48.2138 74.9831 54.6169 72.8453 60.043 69.236C62.9416 51.2412 62.036 41.3712 52.9941 24.4084L49.5458 25.5578C40.4365 34.1685 33.696 44.5841 20.4465 67.4065C26.3555 72.1118 33.719 74.9831 41.4998 74.9831Z" fill="#AE2012"/>
<path d="M75.9826 40.5003C75.9826 38.5531 75.8028 36.6319 75.4594 34.7532C67.1734 27.9672 62.5146 25.2653 54.1435 23.259L52.9941 24.4084C62.036 41.3712 62.9416 51.2412 60.043 69.236C69.4953 62.9486 75.9826 52.1959 75.9826 40.5003Z" fill="#94D2B2"/>
<path d="M61.0401 12.4523C55.4091 8.42848 48.6297 6.01758 41.4998 6.01758C40.7291 6.01758 39.9625 6.04575 39.201 6.10108C43.684 10.9512 45.7365 13.4565 48.3964 17.5118L54.1435 19.8107L61.0401 12.4523Z" fill="#CA6702"/>
<path d="M7.01709 40.5003C7.01709 51.129 12.3748 60.979 20.4465 67.4065C33.696 44.5841 40.4365 34.1685 49.5458 25.5578L46.0976 20.9601C28.0576 19.4729 20.8422 21.8434 9.59729 27.8567C7.94018 31.811 7.01709 36.0886 7.01709 40.5003Z" fill="#E9D8A6"/>
</g>
<ellipse cx="51.6612" cy="22.6441" rx="6.46552" ry="6.46552" transform="rotate(-16.1134 51.6612 22.6441)" fill="white"/>
<defs>
<filter id="filter0_d_1105_93" x="0.0170898" y="0.0175781" width="82.9653" height="82.9653" filterUnits="userSpaceOnUse" color-interpolation-filters="sRGB">
<feFlood flood-opacity="0" result="BackgroundImageFix"/>
<feColorMatrix in="SourceAlpha" type="matrix" values="0 0 0 0 0 0 0 0 0 0 0 0 0 0 0 0 0 0 127 0" result="hardAlpha"/>
<feOffset dy="1"/>
<feGaussianBlur stdDeviation="3.5"/>
<feComposite in2="hardAlpha" operator="out"/>
<feColorMatrix type="matrix" values="0 0 0 0 0 0 0 0 0 0 0 0 0 0 0 0 0 0 0.25 0"/>
<feBlend mode="normal" in2="BackgroundImageFix" result="effect1_dropShadow_1105_93"/>
<feBlend mode="normal" in="SourceGraphic" in2="effect1_dropShadow_1105_93" result="shape"/>
</filter>
</defs>
</svg>
