<svg width="11" height="11" viewBox="0 0 11 11" fill="none" xmlns="http://www.w3.org/2000/svg">
<path d="M0.411541 3.48333C2.20511 2.52422 3.35595 2.14613 6.23333 2.38333L6.6 1.83333C6.17574 1.18651 5.84837 0.786911 5.13333 0.0133192C3.0488 0.164789 1.20398 1.59235 0.411541 3.48333Z" fill="#0A9396"/>
<path d="M8.61667 1.02633L7.51667 2.2V2.75C8.85185 3.07001 9.59493 3.50097 10.9165 4.58333C10.654 3.14721 9.79226 1.86639 8.61667 1.02633Z" fill="#EE9B00"/>
<path d="M5.5 11C6.57087 11 7.59218 10.659 8.45764 10.0833C8.91995 7.21317 8.77552 5.6389 7.33333 2.93333L6.78333 3.11667C5.3304 4.49008 4.25529 6.15137 2.142 9.79153C3.08448 10.542 4.25896 11 5.5 11Z" fill="#AE2012"/>
<path d="M11 5.5C11 5.18941 10.9713 4.88299 10.9165 4.58333C9.59493 3.50097 8.85185 3.07001 7.51667 2.75L7.33333 2.93333C8.77552 5.6389 8.91995 7.21317 8.45764 10.0833C9.96527 9.0805 11 7.36545 11 5.5Z" fill="#94D2B2"/>
<path d="M8.61667 1.02633C7.71852 0.384539 6.63721 0 5.5 0C5.37707 0 5.2548 0.00449333 5.13333 0.0133192C5.84837 0.786911 6.17574 1.18651 6.6 1.83333L7.51667 2.2L8.61667 1.02633Z" fill="#CA6702"/>
<path d="M0 5.5C0 7.19527 0.854554 8.76634 2.142 9.79153C4.25529 6.15137 5.3304 4.49008 6.78333 3.11667L6.23333 2.38333C3.35595 2.14613 2.20511 2.52422 0.411541 3.48333C0.147232 4.11405 0 4.79633 0 5.5Z" fill="#E9D8A6"/>
<circle cx="6.77695" cy="2.70452" r="1.03125" transform="rotate(-16.1134 6.77695 2.70452)" fill="white"/>
</svg>
