<svg width="1798" height="1798" viewBox="0 0 1798 1798" fill="none" xmlns="http://www.w3.org/2000/svg">
<path d="M67.2683 569.367C360.435 412.596 548.546 350.794 1018.87 389.567L1078.8 299.667C1009.45 193.941 955.943 128.624 839.067 2.17709C498.34 26.9356 196.796 260.277 67.2683 569.367Z" fill="#0A9396"/>
<path d="M1408.43 167.759L1228.63 359.6V449.5C1446.87 501.807 1568.33 572.25 1784.36 749.167C1741.45 514.425 1600.59 305.071 1408.43 167.759Z" fill="#EE9B00"/>
<path d="M899 1798C1074.04 1798 1240.98 1742.26 1382.44 1648.17C1458.01 1179.03 1434.4 921.704 1198.67 479.467L1108.77 509.433C871.278 733.924 695.546 1005.47 350.119 1600.47C504.173 1723.14 696.146 1798 899 1798Z" fill="#AE2012"/>
<path d="M1798 899C1798 848.233 1793.31 798.147 1784.36 749.167C1568.33 572.25 1446.87 501.807 1228.63 449.5L1198.67 479.467C1434.4 921.704 1458.01 1179.03 1382.44 1648.17C1628.87 1484.25 1798 1203.92 1798 899Z" fill="#94D2B2"/>
<path d="M1408.43 167.759C1261.63 62.8546 1084.88 0 899 0C878.907 0 858.92 0.734455 839.067 2.17709C955.943 128.624 1009.45 193.941 1078.8 299.667L1228.63 359.6L1408.43 167.759Z" fill="#CA6702"/>
<path d="M0 899C0 1176.1 139.681 1432.9 350.119 1600.47C695.546 1005.47 871.278 733.924 1108.77 509.433L1018.87 389.567C548.546 350.794 360.435 412.596 67.2683 569.367C24.0658 672.461 0 783.981 0 899Z" fill="#E9D8A6"/>
<circle cx="1107.72" cy="442.069" r="168.562" transform="rotate(-16.1134 1107.72 442.069)" fill="white"/>
</svg>
